/* XPM */
static char * bumprace_xpm[] = {
"32 32 509 2",
"  	c None",
". 	c #160A09",
"+ 	c #150A09",
"@ 	c #130807",
"# 	c #120807",
"$ 	c #231110",
"% 	c #24100F",
"& 	c #200E0E",
"* 	c #1D0E0D",
"= 	c #1B0C0B",
"- 	c #1A0A0A",
"; 	c #180A09",
"> 	c #150908",
", 	c #140908",
"' 	c #110807",
") 	c #0F0706",
"! 	c #0D0605",
"~ 	c #0B0605",
"{ 	c #2A1514",
"] 	c #291414",
"^ 	c #281111",
"/ 	c #281010",
"( 	c #241010",
"_ 	c #210E0E",
": 	c #1C0F0E",
"< 	c #140A0A",
"[ 	c #130808",
"} 	c #100707",
"| 	c #0F0807",
"1 	c #110706",
"2 	c #100706",
"3 	c #0D0705",
"4 	c #0A0504",
"5 	c #311715",
"6 	c #2F1614",
"7 	c #2F1514",
"8 	c #2E1413",
"9 	c #2A1312",
"0 	c #241313",
"a 	c #131519",
"b 	c #071920",
"c 	c #02161E",
"d 	c #020F14",
"e 	c #020508",
"f 	c #030304",
"g 	c #090505",
"h 	c #0F0806",
"i 	c #0E0705",
"j 	c #0E0605",
"k 	c #0B0404",
"l 	c #391A19",
"m 	c #391918",
"n 	c #381916",
"o 	c #361816",
"p 	c #351615",
"q 	c #2D1716",
"r 	c #0E202B",
"s 	c #042D3F",
"t 	c #022F42",
"u 	c #022A3C",
"v 	c #022332",
"w 	c #021721",
"x 	c #02090C",
"y 	c #020304",
"z 	c #040304",
"A 	c #0A0505",
"B 	c #0F0606",
"C 	c #0F0605",
"D 	c #0C0404",
"E 	c #090404",
"F 	c #3D1D1B",
"G 	c #411B1A",
"H 	c #401C1B",
"I 	c #3E1D1B",
"J 	c #3D1C1A",
"K 	c #3D1B19",
"L 	c #3A1A19",
"M 	c #20222A",
"N 	c #043E58",
"O 	c #02415B",
"P 	c #023D55",
"Q 	c #02374D",
"R 	c #022433",
"S 	c #02080A",
"T 	c #020204",
"U 	c #050304",
"V 	c #080404",
"W 	c #432120",
"X 	c #44201F",
"Y 	c #451F1E",
"Z 	c #461E1E",
"` 	c #441F1E",
" .	c #431F1E",
"..	c #3A2123",
"+.	c #0B3D56",
"@.	c #034C6B",
"#.	c #024D6C",
"$.	c #024865",
"%.	c #02415C",
"&.	c #02384F",
"*.	c #022D3F",
"=.	c #021F2D",
"-.	c #021119",
";.	c #020405",
">.	c #120707",
",.	c #120706",
"'.	c #0E0606",
").	c #070304",
"!.	c #472221",
"~.	c #4A2121",
"{.	c #4B2221",
"].	c #4C2121",
"^.	c #4E2121",
"/.	c #4D2121",
"(.	c #4C2322",
"_.	c #303038",
":.	c #044F70",
"<.	c #035679",
"[.	c #045879",
"}.	c #065574",
"|.	c #034B68",
"1.	c #023F58",
"2.	c #023449",
"3.	c #022736",
"4.	c #021924",
"5.	c #060305",
"6.	c #140807",
"7.	c #130707",
"8.	c #0B0505",
"9.	c #4E2624",
"0.	c #512423",
"a.	c #512523",
"b.	c #532524",
"c.	c #542524",
"d.	c #552525",
"e.	c #562626",
"f.	c #333743",
"g.	c #03597D",
"h.	c #046086",
"i.	c #167297",
"j.	c #2B7FA1",
"k.	c #116080",
"l.	c #034661",
"m.	c #023951",
"n.	c #022B3D",
"o.	c #021E2A",
"p.	c #020C12",
"q.	c #080405",
"r.	c #542725",
"s.	c #572625",
"t.	c #572725",
"u.	c #592826",
"v.	c #5A2826",
"w.	c #5A2927",
"x.	c #5C2928",
"y.	c #5B2A29",
"z.	c #3A323C",
"A.	c #035C80",
"B.	c #04658B",
"C.	c #2D8DB3",
"D.	c #5AB3D8",
"E.	c #287B9C",
"F.	c #064C69",
"G.	c #023C55",
"H.	c #022E41",
"I.	c #02202D",
"J.	c #020E15",
"K.	c #0C0607",
"L.	c #1E0D0C",
"M.	c #1C0C0B",
"N.	c #180B0A",
"O.	c #170B0A",
"P.	c #140A09",
"Q.	c #0D0606",
"R.	c #542B29",
"S.	c #5E2928",
"T.	c #5E2A28",
"U.	c #602A29",
"V.	c #602B29",
"W.	c #602C2A",
"X.	c #642A2B",
"Y.	c #652B2A",
"Z.	c #69262A",
"`.	c #0E5678",
" +	c #04638A",
".+	c #16769B",
"++	c #348EB1",
"@+	c #186A8C",
"#+	c #044B68",
"$+	c #023D56",
"%+	c #023043",
"&+	c #020E13",
"*+	c #0E0708",
"=+	c #230F0F",
"-+	c #1E0E0D",
";+	c #1C0D0C",
">+	c #1A0C0B",
",+	c #190B0A",
"'+	c #170A09",
")+	c #582C29",
"!+	c #5F2C29",
"~+	c #632B2B",
"{+	c #632C2A",
"]+	c #652D2B",
"^+	c #652E2C",
"/+	c #662C2B",
"(+	c #7B2424",
"_+	c #B61112",
":+	c #D3070A",
"<+	c #374158",
"[+	c #045C83",
"}+	c #056087",
"|+	c #065F81",
"1+	c #045574",
"2+	c #024965",
"3+	c #022E40",
"4+	c #021E2C",
"5+	c #020B0F",
"6+	c #060405",
"7+	c #1E0F0F",
"8+	c #281212",
"9+	c #251110",
"0+	c #23100F",
"a+	c #210F0E",
"b+	c #1A0B0A",
"c+	c #030405",
"d+	c #572B29",
"e+	c #642E2B",
"f+	c #662E2C",
"g+	c #682E2D",
"h+	c #672F2D",
"i+	c #7D2724",
"j+	c #B21414",
"k+	c #D80608",
"l+	c #E40305",
"m+	c #E00406",
"n+	c #AE151A",
"o+	c #354356",
"p+	c #0A5474",
"q+	c #035476",
"r+	c #034D6C",
"s+	c #02435D",
"t+	c #02374C",
"u+	c #02293B",
"v+	c #021925",
"w+	c #06080A",
"x+	c #271211",
"y+	c #311614",
"z+	c #2C1313",
"A+	c #2A1212",
"B+	c #261111",
"C+	c #220F0E",
"D+	c #200E0D",
"E+	c #1E0C0C",
"F+	c #070406",
"G+	c #602F2D",
"H+	c #6A2F2C",
"I+	c #782926",
"J+	c #A91716",
"K+	c #DD0608",
"L+	c #E50305",
"M+	c #E50204",
"N+	c #C30D0F",
"O+	c #7A2B29",
"P+	c #683231",
"Q+	c #4F3840",
"R+	c #294253",
"S+	c #0F405A",
"T+	c #043A53",
"U+	c #052F40",
"V+	c #12222B",
"W+	c #221919",
"X+	c #311917",
"Y+	c #391B19",
"Z+	c #361715",
"`+	c #321514",
" @	c #2D1312",
".@	c #271111",
"+@	c #200D0C",
"@@	c #1D0D0B",
"#@	c #080506",
"$@	c #4F2627",
"%@	c #7B2A27",
"&@	c #A61918",
"*@	c #DB0709",
"=@	c #E70305",
"-@	c #E90204",
";@	c #E80204",
">@	c #CA0D0E",
",@	c #7E2C28",
"'@	c #6F322F",
")@	c #6C312E",
"!@	c #68302D",
"~@	c #642E2C",
"{@	c #582E2D",
"]@	c #462C2C",
"^@	c #472929",
"/@	c #4C2424",
"(@	c #472120",
"_@	c #431E1D",
":@	c #3E1B1A",
"<@	c #341715",
"[@	c #311514",
"}@	c #2D1413",
"|@	c #2A1211",
"1@	c #261010",
"2@	c #230E0D",
"3@	c #1F0C0B",
"4@	c #030305",
"5@	c #811C1B",
"6@	c #D6090A",
"7@	c #EA0204",
"8@	c #EC0204",
"9@	c #EB0204",
"0@	c #CE0D0E",
"a@	c #7D2F2C",
"b@	c #703431",
"c@	c #6F3331",
"d@	c #6D3230",
"e@	c #69302E",
"f@	c #5F2B29",
"g@	c #5A2827",
"h@	c #552625",
"i@	c #502423",
"j@	c #4B2120",
"k@	c #451E1D",
"l@	c #411D1B",
"m@	c #3B1A19",
"n@	c #371917",
"o@	c #331714",
"p@	c #301514",
"q@	c #6F0C0B",
"r@	c #E80406",
"s@	c #EE0204",
"t@	c #EF0204",
"u@	c #DC090A",
"v@	c #862F2C",
"w@	c #743633",
"x@	c #733532",
"y@	c #713532",
"z@	c #6E3231",
"A@	c #69302F",
"B@	c #5E2C29",
"C@	c #5B2826",
"D@	c #562725",
"E@	c #502523",
"F@	c #4D2322",
"G@	c #471F1E",
"H@	c #431E1C",
"I@	c #3A1918",
"J@	c #321614",
"K@	c #291211",
"L@	c #271110",
"M@	c #251010",
"N@	c #130A0A",
"O@	c #C90608",
"P@	c #F10204",
"Q@	c #E00A0B",
"R@	c #942B2A",
"S@	c #783735",
"T@	c #763835",
"U@	c #743834",
"V@	c #733634",
"W@	c #6A3130",
"X@	c #652E2D",
"Y@	c #612C2A",
"Z@	c #5B2926",
"`@	c #522523",
" #	c #4E2222",
".#	c #492020",
"+#	c #391917",
"@#	c #351715",
"##	c #2C1413",
"$#	c #250F0E",
"%#	c #91090B",
"&#	c #F10305",
"*#	c #F30205",
"=#	c #E2090C",
"-#	c #962F2C",
";#	c #7D3A38",
">#	c #7A3B39",
",#	c #793B38",
"'#	c #763A38",
")#	c #743836",
"!#	c #6F3432",
"~#	c #6B3231",
"{#	c #622C2A",
"]#	c #5C2A27",
"^#	c #582725",
"/#	c #4A2120",
"(#	c #451F1D",
"_#	c #3E1C1A",
":#	c #391A18",
"<#	c #371816",
"[#	c #2C1312",
"}#	c #1A0B0B",
"|#	c #030204",
"1#	c #C7080B",
"2#	c #E20C0D",
"3#	c #9B322F",
"4#	c #813D3C",
"5#	c #7F3E3C",
"6#	c #7E3F3D",
"7#	c #7C3F3D",
"8#	c #7A3D3B",
"9#	c #753937",
"0#	c #713633",
"a#	c #6D3332",
"b#	c #622D2A",
"c#	c #572825",
"d#	c #552524",
"e#	c #4E2322",
"f#	c #4B2121",
"g#	c #401D1C",
"h#	c #3B1B19",
"i#	c #361916",
"j#	c #341614",
"k#	c #301412",
"l#	c #070405",
"m#	c #6A0B0E",
"n#	c #942F2E",
"o#	c #824240",
"p#	c #844240",
"q#	c #824341",
"r#	c #834442",
"s#	c #804240",
"t#	c #7C403E",
"u#	c #723734",
"v#	c #6D3432",
"w#	c #652F2D",
"x#	c #632D2B",
"y#	c #582825",
"z#	c #562624",
"A#	c #502322",
"B#	c #48201F",
"C#	c #411E1C",
"D#	c #3F1C1A",
"E#	c #371916",
"F#	c #351816",
"G#	c #5B2626",
"H#	c #7B403D",
"I#	c #884745",
"J#	c #8B4A48",
"K#	c #894947",
"L#	c #854845",
"M#	c #7F4240",
"N#	c #783D3A",
"O#	c #6E3433",
"P#	c #662F2D",
"Q#	c #632E2B",
"R#	c #421E1C",
"S#	c #3C1A19",
"T#	c #2D1614",
"U#	c #3A1D1C",
"V#	c #723E3C",
"W#	c #90514F",
"X#	c #8D504D",
"Y#	c #8A4C49",
"Z#	c #824442",
"`#	c #7A3F3D",
" $	c #753C39",
".$	c #6C3433",
"+$	c #662F2E",
"@$	c #642D2B",
"#$	c #552725",
"$$	c #4C2221",
"%$	c #411D1C",
"&$	c #411C1B",
"*$	c #3B1C1B",
"=$	c #281414",
"-$	c #090405",
";$	c #5E302F",
">$	c #804847",
",$	c #8D4E4C",
"'$	c #834644",
")$	c #7D423F",
"!$	c #773D3B",
"~$	c #6C3431",
"{$	c #67302F",
"]$	c #5D2A28",
"^$	c #341918",
"/$	c #12090A",
"($	c #422020",
"_$	c #582C2B",
":$	c #6C3635",
"<$	c #753D3B",
"[$	c #763E3B",
"}$	c #6A3431",
"|$	c #66312F",
"1$	c #622E2C",
"2$	c #5C2A28",
"3$	c #542824",
"4$	c #512524",
"5$	c #4A2221",
"6$	c #421F1F",
"7$	c #331716",
"8$	c #1B0C0D",
"9$	c #3C1B1B",
"0$	c #452221",
"a$	c #492322",
"b$	c #492220",
"c$	c #4D2623",
"d$	c #48211F",
"e$	c #0D0404",
"f$	c #080304",
"g$	c #211010",
"h$	c #1B0D0D",
"i$	c #160B0A",
"j$	c #140B0B",
"                                                                ",
"                                                                ",
"                                                                ",
"                            . + @ #                             ",
"                  $ % & * = - ; > , # ' ) ! ~                   ",
"              { ] ^ / ( _ : < [ } | ' 1 2 ) 3 ~ 4               ",
"            5 6 7 8 9 0 a b c d e f g ) h 2 i j j k             ",
"        l m n o o p q r s t u v w x y z A ) 2 ) B C D E         ",
"      F G H I J K L M N O P Q t R w S T U B 1 1 2 2 ) j V       ",
"    W X Y Z Y `  ...+.@.#.$.%.&.*.=.-.;.T A >.>.,.1 2 2 '.).    ",
"    !.~.{.].^./.(._.:.<.[.}.|.1.2.3.4.S T 5.[ , 6.7.,.1 >.8.    ",
"  9.0.a.b.c.c.d.e.f.g.h.i.j.k.l.m.n.o.p.y q.; ; ; . , [ @ ' q.  ",
"  r.s.t.u.v.w.x.y.z.A.B.C.D.E.F.G.H.I.J.y K.L.M.= N.O.. P.> Q.  ",
"R.w.S.T.U.V.W.X.Y.Z.`. +.+++@+#+$+%+=.&+y *+=+_ -+;+>+,+N.'+[ f ",
")+!+~+{+]+^+/+(+_+:+<+[+}+|+1+2+G.3+4+5+6+7+8+9+0+a+L.M.b+,+; c+",
"d+e+f+g+h+i+j+k+l+m+n+o+p+q+r+s+t+u+v+w+x+y+z+A+B+0+C+D+E+M.,+F+",
"G+H+H+I+J+K+L+M+L+N+O+P+Q+R+S+T+U+V+W+X+Y+Z+`+ @A+.@% C+D++@@@#@",
"$@%@&@*@=@-@;@;@>@,@'@)@!@~@{@]@^@/@(@_@:@m <@[@}@|@^ 1@2@+@3@4@",
"5@6@=@7@7@8@9@0@a@b@c@d@e@~@f@g@h@i@j@k@l@m@n@o@p@}@|@.@1@=+= 4@",
"q@r@s@s@t@s@u@v@w@x@y@z@A@~@B@C@D@E@F@G@H@:@I@o J@p@}@K@L@M@N@T ",
"  O@t@P@P@Q@R@S@T@U@V@c@W@X@Y@Z@D@`@ #.#_@l@m@+#@#y+7 ##K@$#F+  ",
"  %#&#*#=#-#;#>#,#'#)#!#~#^+{#]#^#c.F@/#(#H@_#:#<#@#p@8 [#}#|#  ",
"    1#2#3#4#5#6#7#8#9#0#a#X@b#]#c#d#e#f#G@H@g#h#n i#j#k#( l#    ",
"    m#n#o#p#q#r#s#t#'#u#v#w#x#]#y#z#A#{.B#H@C#D#+#E#F###K.|#    ",
"      G#H#I#J#K#L#M#N#9#O#P#Q#]#c#z#0.]./#(#R#H S#n@T#*+|#      ",
"        U#V#W#X#Y#Z#`# $.$+$@$]#c##$i@$$~.Y %$&$*$=$-$|#        ",
"            ;$>$,$'$)$!$~${$~@]$^##$a.].~.B#C#^$/$|#            ",
"              ($_$:$<$[$}$|$1$2$c#3$4$5$6$7$8$z T               ",
"                    9$0$a$b$c$d$l@F#5 }#e$f$                    ",
"                            g$h$i$j$                            ",
"                                                                ",
"                                                                "};
